<svg xmlns="http://www.w3.org/2000/svg" viewBox="0 0 19.2 19.2"><defs><style>.cls-1{isolation:isolate;}.cls-2{opacity:0.98;mix-blend-mode:saturation;}</style></defs><title>instagram-with-circle</title><g class="cls-1"><g id="Instagram_w_circle" data-name="Instagram w/ circle" class="cls-2"><rect x="11.76" y="5.69" width="1.8" height="1.8" rx="0.3" ry="0.3"/><circle cx="9.6" cy="9.6" r="2"/><path d="M13,10a3,3,0,0,1-6,0,2.66,2.66,0,0,1,0-.5H6v4a0.5,0.5,0,0,0,.5.5h7a0.5,0.5,0,0,0,.5-0.5v-4H13A2.66,2.66,0,0,1,13,10Z" transform="translate(-0.4 -0.4)"/><path d="M10,0.4A9.6,9.6,0,1,0,19.6,10,9.6,9.6,0,0,0,10,.4Zm5,13.49A1.11,1.11,0,0,1,13.89,15H6.11A1.11,1.11,0,0,1,5,13.89V6.11A1.11,1.11,0,0,1,6.11,5h7.78A1.11,1.11,0,0,1,15,6.11v7.78Z" transform="translate(-0.4 -0.4)"/></g></g></svg>